<?xml version="1.0" encoding="UTF-8" standalone="no"?>
<!DOCTYPE svg PUBLIC "-//W3C//DTD SVG 1.1//EN"
 "http://www.w3.org/Graphics/SVG/1.1/DTD/svg11.dtd">
<!-- Generated by graphviz version 2.38.0 (20140413.2041)
 -->
<!-- Title: Perl Pages: 1 -->
<svg width="613pt" height="655pt"
 viewBox="0.00 0.00 613.05 654.60" xmlns="http://www.w3.org/2000/svg" xmlns:xlink="http://www.w3.org/1999/xlink">
<g id="graph0" class="graph" transform="scale(1 1) rotate(0) translate(4 650.6)">
<title>Perl</title>
<polygon fill="white" stroke="none" points="-4,4 -4,-650.6 609.049,-650.6 609.049,4 -4,4"/>
<!-- MXTURE -->
<g id="node1" class="node"><title>MXTURE</title>
<polygon fill="none" stroke="black" points="361.528,-259.402 286.329,-259.402 286.329,-218.198 361.528,-218.198 361.528,-259.402"/>
<text text-anchor="middle" x="323.929" y="-243" font-family="Times,serif" font-size="14.00">MXTURE</text>
<text text-anchor="middle" x="323.929" y="-226.2" font-family="Times,serif" font-size="14.00">443</text>
</g>
<!-- SI_CCCOR -->
<g id="node2" class="node"><title>SI_CCCOR</title>
<polygon fill="none" stroke="black" points="213.393,-575.402 130.6,-575.402 130.6,-534.198 213.393,-534.198 213.393,-575.402"/>
<text text-anchor="middle" x="171.997" y="-559" font-family="Times,serif" font-size="14.00">SI_CCCOR</text>
<text text-anchor="middle" x="171.997" y="-542.2" font-family="Times,serif" font-size="14.00">192</text>
</g>
<!-- SITNU -->
<g id="node3" class="node"><title>SITNU</title>
<polygon fill="none" stroke="black" points="352.638,-646.402 295.219,-646.402 295.219,-605.198 352.638,-605.198 352.638,-646.402"/>
<text text-anchor="middle" x="323.929" y="-630" font-family="Times,serif" font-size="14.00">SITNU</text>
<text text-anchor="middle" x="323.929" y="-613.2" font-family="Times,serif" font-size="14.00">169</text>
</g>
<!-- SI_CCCOR&#45;&#45;SITNU -->
<g id="edge1" class="edge"><title>SI_CCCOR&#45;&#45;SITNU</title>
<path fill="none" stroke="black" d="M213.656,-571.402C223.574,-575.625 234.109,-580.258 243.771,-584.8 260.999,-592.898 279.946,-602.679 294.982,-610.657"/>
</g>
<!-- SIGAM -->
<g id="node4" class="node"><title>SIGAM</title>
<polygon fill="none" stroke="black" points="354.53,-586.402 293.327,-586.402 293.327,-545.198 354.53,-545.198 354.53,-586.402"/>
<text text-anchor="middle" x="323.929" y="-570" font-family="Times,serif" font-size="14.00">SIGAM</text>
<text text-anchor="middle" x="323.929" y="-553.2" font-family="Times,serif" font-size="14.00">164</text>
</g>
<!-- SI_CCCOR&#45;&#45;SIGAM -->
<g id="edge2" class="edge"><title>SI_CCCOR&#45;&#45;SIGAM</title>
<path fill="none" stroke="black" d="M213.57,-557.777C238.72,-559.622 270.464,-561.951 293.263,-563.624"/>
</g>
<!-- SISEVE -->
<g id="node5" class="node"><title>SISEVE</title>
<polygon fill="none" stroke="black" points="355.868,-466.402 291.989,-466.402 291.989,-425.198 355.868,-425.198 355.868,-466.402"/>
<text text-anchor="middle" x="323.929" y="-450" font-family="Times,serif" font-size="14.00">SISEVE</text>
<text text-anchor="middle" x="323.929" y="-433.2" font-family="Times,serif" font-size="14.00">818</text>
</g>
<!-- SI_CCCOR&#45;&#45;SISEVE -->
<g id="edge3" class="edge"><title>SI_CCCOR&#45;&#45;SISEVE</title>
<path fill="none" stroke="black" d="M213.634,-541.943C224.081,-537.507 234.873,-531.836 243.771,-524.8 264.969,-508.039 260.414,-494.657 279.771,-475.8 283.432,-472.234 287.556,-468.793 291.765,-465.592"/>
</g>
<!-- VERDISINT -->
<g id="node7" class="node"><title>VERDISINT</title>
<polygon fill="none" stroke="black" points="493.884,-526.402 404.153,-526.402 404.153,-485.198 493.884,-485.198 493.884,-526.402"/>
<text text-anchor="middle" x="449.018" y="-510" font-family="Times,serif" font-size="14.00">VERDISINT</text>
<text text-anchor="middle" x="449.018" y="-493.2" font-family="Times,serif" font-size="14.00">298</text>
</g>
<!-- SITNU&#45;&#45;VERDISINT -->
<g id="edge4" class="edge"><title>SITNU&#45;&#45;VERDISINT</title>
<path fill="none" stroke="black" d="M352.81,-609.021C358.221,-605.071 363.598,-600.599 368.086,-595.8 389.326,-573.086 382.751,-558.426 404.086,-535.8 407.127,-532.575 410.572,-529.504 414.163,-526.644"/>
</g>
<!-- SIGAM&#45;&#45;VERDISINT -->
<g id="edge16" class="edge"><title>SIGAM&#45;&#45;VERDISINT</title>
<path fill="none" stroke="black" d="M354.725,-551.276C369.951,-543.854 388.747,-534.692 405.469,-526.54"/>
</g>
<!-- SISKAPI -->
<g id="node6" class="node"><title>SISKAPI</title>
<polygon fill="none" stroke="black" points="483.401,-466.402 414.636,-466.402 414.636,-425.198 483.401,-425.198 483.401,-466.402"/>
<text text-anchor="middle" x="449.018" y="-450" font-family="Times,serif" font-size="14.00">SISKAPI</text>
<text text-anchor="middle" x="449.018" y="-433.2" font-family="Times,serif" font-size="14.00">118</text>
</g>
<!-- SISEVE&#45;&#45;SISKAPI -->
<g id="edge10" class="edge"><title>SISEVE&#45;&#45;SISKAPI</title>
<path fill="none" stroke="black" d="M355.672,-445.8C373.474,-445.8 395.908,-445.8 414.207,-445.8"/>
</g>
<!-- SISEVE&#45;&#45;VERDISINT -->
<g id="edge9" class="edge"><title>SISEVE&#45;&#45;VERDISINT</title>
<path fill="none" stroke="black" d="M355.672,-460.786C370.768,-468.144 389.195,-477.127 405.607,-485.126"/>
</g>
<!-- VERDERFE -->
<g id="node11" class="node"><title>VERDERFE</title>
<polygon fill="none" stroke="black" points="493.346,-586.402 404.691,-586.402 404.691,-545.198 493.346,-545.198 493.346,-586.402"/>
<text text-anchor="middle" x="449.018" y="-570" font-family="Times,serif" font-size="14.00">VERDERFE</text>
<text text-anchor="middle" x="449.018" y="-553.2" font-family="Times,serif" font-size="14.00">168</text>
</g>
<!-- SISEVE&#45;&#45;VERDERFE -->
<g id="edge8" class="edge"><title>SISEVE&#45;&#45;VERDERFE</title>
<path fill="none" stroke="black" d="M355.956,-464.941C360.279,-468.28 364.471,-471.934 368.086,-475.8 389.326,-498.514 382.751,-513.174 404.086,-535.8 407.127,-539.025 410.572,-542.096 414.163,-544.956"/>
</g>
<!-- VERINTS -->
<g id="node8" class="node"><title>VERINTS</title>
<polygon fill="none" stroke="black" points="605.098,-586.402 529.902,-586.402 529.902,-545.198 605.098,-545.198 605.098,-586.402"/>
<text text-anchor="middle" x="567.5" y="-570" font-family="Times,serif" font-size="14.00">VERINTS</text>
<text text-anchor="middle" x="567.5" y="-553.2" font-family="Times,serif" font-size="14.00">85</text>
</g>
<!-- VERDISINT&#45;&#45;VERINTS -->
<g id="edge5" class="edge"><title>VERDISINT&#45;&#45;VERINTS</title>
<path fill="none" stroke="black" d="M490.105,-526.449C503.003,-533.093 517.222,-540.417 529.859,-546.926"/>
</g>
<!-- VERINT -->
<g id="node9" class="node"><title>VERINT</title>
<polygon fill="none" stroke="black" points="601.316,-526.402 533.684,-526.402 533.684,-485.198 601.316,-485.198 601.316,-526.402"/>
<text text-anchor="middle" x="567.5" y="-510" font-family="Times,serif" font-size="14.00">VERINT</text>
<text text-anchor="middle" x="567.5" y="-493.2" font-family="Times,serif" font-size="14.00">227</text>
</g>
<!-- VERDISINT&#45;&#45;VERINT -->
<g id="edge6" class="edge"><title>VERDISINT&#45;&#45;VERINT</title>
<path fill="none" stroke="black" d="M494.055,-505.8C507.198,-505.8 521.368,-505.8 533.661,-505.8"/>
</g>
<!-- VERDER -->
<g id="node10" class="node"><title>VERDER</title>
<polygon fill="none" stroke="black" points="603.492,-466.402 531.508,-466.402 531.508,-425.198 603.492,-425.198 603.492,-466.402"/>
<text text-anchor="middle" x="567.5" y="-450" font-family="Times,serif" font-size="14.00">VERDER</text>
<text text-anchor="middle" x="567.5" y="-433.2" font-family="Times,serif" font-size="14.00">151</text>
</g>
<!-- VERDISINT&#45;&#45;VERDER -->
<g id="edge7" class="edge"><title>VERDISINT&#45;&#45;VERDER</title>
<path fill="none" stroke="black" d="M490.105,-485.151C503.53,-478.236 518.385,-470.584 531.399,-463.881"/>
</g>
<!-- SI_MXPTCO -->
<g id="node12" class="node"><title>SI_MXPTCO</title>
<polygon fill="none" stroke="black" points="218.77,-379.402 125.223,-379.402 125.223,-338.198 218.77,-338.198 218.77,-379.402"/>
<text text-anchor="middle" x="171.997" y="-363" font-family="Times,serif" font-size="14.00">SI_MXPTCO</text>
<text text-anchor="middle" x="171.997" y="-346.2" font-family="Times,serif" font-size="14.00">224</text>
</g>
<!-- SIMPLICO -->
<g id="node13" class="node"><title>SIMPLICO</title>
<polygon fill="none" stroke="black" points="212.824,-139.402 131.169,-139.402 131.169,-98.1981 212.824,-98.1981 212.824,-139.402"/>
<text text-anchor="middle" x="171.997" y="-123" font-family="Times,serif" font-size="14.00">SIMPLICO</text>
<text text-anchor="middle" x="171.997" y="-106.2" font-family="Times,serif" font-size="14.00">253</text>
</g>
<!-- SPCSIDG_PART1 -->
<g id="node14" class="node"><title>SPCSIDG_PART1</title>
<polygon fill="none" stroke="black" points="233.834,-259.402 110.159,-259.402 110.159,-218.198 233.834,-218.198 233.834,-259.402"/>
<text text-anchor="middle" x="171.997" y="-243" font-family="Times,serif" font-size="14.00">SPCSIDG_PART1</text>
<text text-anchor="middle" x="171.997" y="-226.2" font-family="Times,serif" font-size="14.00">104</text>
</g>
<!-- SPCSIDG_PART1&#45;&#45;MXTURE -->
<g id="edge11" class="edge"><title>SPCSIDG_PART1&#45;&#45;MXTURE</title>
<path fill="none" stroke="black" d="M233.98,-238.8C251.654,-238.8 270.403,-238.8 286.107,-238.8"/>
</g>
<!-- SIDD -->
<g id="node15" class="node"><title>SIDD</title>
<polygon fill="none" stroke="black" points="198.997,-635.402 144.997,-635.402 144.997,-594.198 198.997,-594.198 198.997,-635.402"/>
<text text-anchor="middle" x="171.997" y="-619" font-family="Times,serif" font-size="14.00">SIDD</text>
<text text-anchor="middle" x="171.997" y="-602.2" font-family="Times,serif" font-size="14.00">174</text>
</g>
<!-- SIDD&#45;&#45;SIGAM -->
<g id="edge12" class="edge"><title>SIDD&#45;&#45;SIGAM</title>
<path fill="none" stroke="black" d="M199.113,-606.265C225.373,-597.683 265.799,-584.471 293.256,-575.497"/>
</g>
<!-- SIDD&#45;&#45;SISEVE -->
<g id="edge14" class="edge"><title>SIDD&#45;&#45;SISEVE</title>
<path fill="none" stroke="black" d="M199.012,-609.425C213.949,-605.097 232.016,-597.56 243.771,-584.8 278.339,-547.278 249.256,-516.686 279.771,-475.8 283.155,-471.266 287.432,-467.169 291.969,-463.562"/>
</g>
<!-- SIGAM_NH -->
<g id="node16" class="node"><title>SIGAM_NH</title>
<polygon fill="none" stroke="black" points="368.243,-526.402 279.614,-526.402 279.614,-485.198 368.243,-485.198 368.243,-526.402"/>
<text text-anchor="middle" x="323.929" y="-510" font-family="Times,serif" font-size="14.00">SIGAM_NH</text>
<text text-anchor="middle" x="323.929" y="-493.2" font-family="Times,serif" font-size="14.00">164</text>
</g>
<!-- SIDD&#45;&#45;SIGAM_NH -->
<g id="edge13" class="edge"><title>SIDD&#45;&#45;SIGAM_NH</title>
<path fill="none" stroke="black" d="M199.009,-607.517C213.23,-602.66 230.581,-595.23 243.771,-584.8 264.969,-568.039 260.414,-554.657 279.771,-535.8 283.04,-532.616 286.677,-529.532 290.416,-526.629"/>
</g>
<!-- SIGAM_NH&#45;&#45;VERDISINT -->
<g id="edge31" class="edge"><title>SIGAM_NH&#45;&#45;VERDISINT</title>
<path fill="none" stroke="black" d="M368.325,-505.8C379.815,-505.8 392.232,-505.8 403.766,-505.8"/>
</g>
<!-- SIPTP -->
<g id="node17" class="node"><title>SIPTP</title>
<polygon fill="none" stroke="black" points="198.997,-41.4019 144.997,-41.4019 144.997,-0.198095 198.997,-0.198095 198.997,-41.4019"/>
<text text-anchor="middle" x="171.997" y="-25" font-family="Times,serif" font-size="14.00">SIPTP</text>
<text text-anchor="middle" x="171.997" y="-8.2" font-family="Times,serif" font-size="14.00">180</text>
</g>
<!-- SIPTP&#45;&#45;SITNU -->
<g id="edge15" class="edge"><title>SIPTP&#45;&#45;SITNU</title>
<path fill="none" stroke="black" d="M199.297,-38.3236C215.147,-50.4617 234.084,-68.1236 243.771,-88.8 291.691,-191.081 223.932,-497.618 279.771,-595.8 283.38,-602.145 288.948,-607.455 294.898,-611.756"/>
</g>
<!-- MXPTMA -->
<g id="node18" class="node"><title>MXPTMA</title>
<polygon fill="none" stroke="black" points="362.867,-406.402 284.99,-406.402 284.99,-365.198 362.867,-365.198 362.867,-406.402"/>
<text text-anchor="middle" x="323.929" y="-390" font-family="Times,serif" font-size="14.00">MXPTMA</text>
<text text-anchor="middle" x="323.929" y="-373.2" font-family="Times,serif" font-size="14.00">167</text>
</g>
<!-- SPNHSI -->
<g id="node19" class="node"><title>SPNHSI</title>
<polygon fill="none" stroke="black" points="64.3328,-349.402 -0.111184,-349.402 -0.111184,-308.198 64.3328,-308.198 64.3328,-349.402"/>
<text text-anchor="middle" x="32.1108" y="-333" font-family="Times,serif" font-size="14.00">SPNHSI</text>
<text text-anchor="middle" x="32.1108" y="-316.2" font-family="Times,serif" font-size="14.00">994</text>
</g>
<!-- SPNHSI&#45;&#45;SI_CCCOR -->
<g id="edge18" class="edge"><title>SPNHSI&#45;&#45;SI_CCCOR</title>
<path fill="none" stroke="black" d="M34.7396,-349.644C38.8649,-388.84 53.033,-474.135 100.222,-524.8 108.317,-533.492 119.337,-539.766 130.271,-544.253"/>
</g>
<!-- SPNHSI&#45;&#45;SITNU -->
<g id="edge21" class="edge"><title>SPNHSI&#45;&#45;SITNU</title>
<path fill="none" stroke="black" d="M53.7622,-349.66C66.5022,-361.9 83.5478,-377.191 100.222,-388.8 159.466,-430.05 198.602,-408.488 243.771,-464.8 281.552,-511.901 244.896,-546.509 279.771,-595.8 283.882,-601.61 289.495,-606.665 295.312,-610.885"/>
</g>
<!-- SPNHSI&#45;&#45;SIGAM -->
<g id="edge27" class="edge"><title>SPNHSI&#45;&#45;SIGAM</title>
<path fill="none" stroke="black" d="M35.7282,-307.993C42.8983,-254.727 64.7206,-115.736 100.222,-88.8 151.048,-50.2366 196.882,-45.5353 243.771,-88.8 317.012,-156.379 230.095,-449.409 279.771,-535.8 283.046,-541.495 287.893,-546.36 293.168,-550.411"/>
</g>
<!-- SPNHSI&#45;&#45;SISEVE -->
<g id="edge20" class="edge"><title>SPNHSI&#45;&#45;SISEVE</title>
<path fill="none" stroke="black" d="M51.4399,-349.686C63.961,-362.727 81.6058,-378.87 100.222,-388.8 163.43,-422.518 247.491,-436.975 292.086,-442.605"/>
</g>
<!-- SPNHSI&#45;&#45;SI_MXPTCO -->
<g id="edge22" class="edge"><title>SPNHSI&#45;&#45;SI_MXPTCO</title>
<path fill="none" stroke="black" d="M64.3992,-335.607C82.3565,-339.514 105.23,-344.491 125.181,-348.832"/>
</g>
<!-- SPNHSI&#45;&#45;SIMPLICO -->
<g id="edge26" class="edge"><title>SPNHSI&#45;&#45;SIMPLICO</title>
<path fill="none" stroke="black" d="M35.4983,-307.916C40.7477,-271.154 56.5269,-194.463 100.222,-148.8 108.618,-140.026 119.988,-133.698 131.157,-129.187"/>
</g>
<!-- SPNHSI&#45;&#45;SPCSIDG_PART1 -->
<g id="edge24" class="edge"><title>SPNHSI&#45;&#45;SPCSIDG_PART1</title>
<path fill="none" stroke="black" d="M52.8316,-307.983C65.5019,-295.456 82.8002,-279.849 100.222,-268.8 105.518,-265.44 111.256,-262.303 117.094,-259.42"/>
</g>
<!-- SPNHSI&#45;&#45;SIDD -->
<g id="edge17" class="edge"><title>SPNHSI&#45;&#45;SIDD</title>
<path fill="none" stroke="black" d="M32.7067,-349.5C32.8894,-396.971 39.8046,-514.952 100.222,-584.8 111.572,-597.922 129.645,-605.453 144.687,-609.688"/>
</g>
<!-- SPNHSI&#45;&#45;SIPTP -->
<g id="edge28" class="edge"><title>SPNHSI&#45;&#45;SIPTP</title>
<path fill="none" stroke="black" d="M32.5736,-308.113C32.3741,-258.835 38.3608,-132.88 100.222,-55.8 111.461,-41.7953 129.73,-32.9586 144.892,-27.6679"/>
</g>
<!-- SPCSIDG_PART2 -->
<g id="node20" class="node"><title>SPCSIDG_PART2</title>
<polygon fill="none" stroke="black" points="233.834,-515.402 110.159,-515.402 110.159,-474.198 233.834,-474.198 233.834,-515.402"/>
<text text-anchor="middle" x="171.997" y="-499" font-family="Times,serif" font-size="14.00">SPCSIDG_PART2</text>
<text text-anchor="middle" x="171.997" y="-482.2" font-family="Times,serif" font-size="14.00">82</text>
</g>
<!-- SPNHSI&#45;&#45;SPCSIDG_PART2 -->
<g id="edge19" class="edge"><title>SPNHSI&#45;&#45;SPCSIDG_PART2</title>
<path fill="none" stroke="black" d="M39.1376,-349.454C48.2611,-377.578 68.0131,-428.045 100.222,-459.8 105.786,-465.286 112.38,-470.064 119.272,-474.177"/>
</g>
<!-- MXMAOPTR -->
<g id="node21" class="node"><title>MXMAOPTR</title>
<polygon fill="none" stroke="black" points="220.377,-319.402 123.616,-319.402 123.616,-278.198 220.377,-278.198 220.377,-319.402"/>
<text text-anchor="middle" x="171.997" y="-303" font-family="Times,serif" font-size="14.00">MXMAOPTR</text>
<text text-anchor="middle" x="171.997" y="-286.2" font-family="Times,serif" font-size="14.00">90</text>
</g>
<!-- SPNHSI&#45;&#45;MXMAOPTR -->
<g id="edge23" class="edge"><title>SPNHSI&#45;&#45;MXMAOPTR</title>
<path fill="none" stroke="black" d="M64.3992,-321.993C81.8798,-318.189 104.019,-313.372 123.586,-309.115"/>
</g>
<!-- SPCSIDG_PART0NH -->
<g id="node22" class="node"><title>SPCSIDG_PART0NH</title>
<polygon fill="none" stroke="black" points="243.547,-199.402 100.446,-199.402 100.446,-158.198 243.547,-158.198 243.547,-199.402"/>
<text text-anchor="middle" x="171.997" y="-183" font-family="Times,serif" font-size="14.00">SPCSIDG_PART0NH</text>
<text text-anchor="middle" x="171.997" y="-166.2" font-family="Times,serif" font-size="14.00">48</text>
</g>
<!-- SPNHSI&#45;&#45;SPCSIDG_PART0NH -->
<g id="edge25" class="edge"><title>SPNHSI&#45;&#45;SPCSIDG_PART0NH</title>
<path fill="none" stroke="black" d="M40.0037,-307.83C49.6357,-281.477 69.4743,-236.366 100.222,-208.8 104.097,-205.326 108.434,-202.214 113.002,-199.434"/>
</g>
<!-- SPCSIDG_PART2&#45;&#45;MXPTMA -->
<g id="edge30" class="edge"><title>SPCSIDG_PART2&#45;&#45;MXPTMA</title>
<path fill="none" stroke="black" d="M200.487,-474.114C221.955,-458.044 252.602,-435.288 279.771,-415.8 283.924,-412.822 288.325,-409.711 292.666,-406.668"/>
</g>
<!-- MXMAOP -->
<g id="node23" class="node"><title>MXMAOP</title>
<polygon fill="none" stroke="black" points="363.42,-319.402 284.437,-319.402 284.437,-278.198 363.42,-278.198 363.42,-319.402"/>
<text text-anchor="middle" x="323.929" y="-303" font-family="Times,serif" font-size="14.00">MXMAOP</text>
<text text-anchor="middle" x="323.929" y="-286.2" font-family="Times,serif" font-size="14.00">132</text>
</g>
<!-- MXMAOPTR&#45;&#45;MXMAOP -->
<g id="edge29" class="edge"><title>MXMAOPTR&#45;&#45;MXMAOP</title>
<path fill="none" stroke="black" d="M220.436,-298.8C241.026,-298.8 264.833,-298.8 284.317,-298.8"/>
</g>
</g>
</svg>
