<?xml version="1.0" encoding="UTF-8" standalone="no"?>
<!DOCTYPE svg PUBLIC "-//W3C//DTD SVG 1.1//EN"
 "http://www.w3.org/Graphics/SVG/1.1/DTD/svg11.dtd">
<!-- Generated by graphviz version 2.38.0 (20140413.2041)
 -->
<!-- Title: Perl Pages: 1 -->
<svg width="640pt" height="854pt"
 viewBox="0.00 0.00 640.26 853.60" xmlns="http://www.w3.org/2000/svg" xmlns:xlink="http://www.w3.org/1999/xlink">
<g id="graph0" class="graph" transform="scale(1 1) rotate(0) translate(4 849.6)">
<title>Perl</title>
<polygon fill="white" stroke="none" points="-4,4 -4,-849.6 636.261,-849.6 636.261,4 -4,4"/>
<!-- MXTURE -->
<g id="node1" class="node"><title>MXTURE</title>
<polygon fill="cyan" stroke="black" points="388.74,-319.402 313.541,-319.402 313.541,-278.198 388.74,-278.198 388.74,-319.402"/>
<text text-anchor="middle" x="351.14" y="-303" font-family="Times,serif" font-size="14.00">MXTURE</text>
<text text-anchor="middle" x="351.14" y="-286.2" font-family="Times,serif" font-size="14.00">443</text>
</g>
<!-- SI_CCCOR -->
<g id="node2" class="node"><title>SI_CCCOR</title>
<polygon fill="none" stroke="black" points="226.999,-755.402 144.206,-755.402 144.206,-714.198 226.999,-714.198 226.999,-755.402"/>
<text text-anchor="middle" x="185.602" y="-739" font-family="Times,serif" font-size="14.00">SI_CCCOR</text>
<text text-anchor="middle" x="185.602" y="-722.2" font-family="Times,serif" font-size="14.00">192</text>
</g>
<!-- SITNU -->
<g id="node3" class="node"><title>SITNU</title>
<polygon fill="none" stroke="black" points="379.85,-845.402 322.431,-845.402 322.431,-804.198 379.85,-804.198 379.85,-845.402"/>
<text text-anchor="middle" x="351.14" y="-829" font-family="Times,serif" font-size="14.00">SITNU</text>
<text text-anchor="middle" x="351.14" y="-812.2" font-family="Times,serif" font-size="14.00">169</text>
</g>
<!-- SI_CCCOR&#45;&#45;SITNU -->
<g id="edge1" class="edge"><title>SI_CCCOR&#45;&#45;SITNU</title>
<path fill="none" stroke="black" d="M227.369,-746.065C241.646,-750.837 257.476,-757.099 270.983,-764.8 289.077,-775.116 290.417,-782.177 306.983,-794.8 311.919,-798.561 317.277,-802.44 322.486,-806.11"/>
</g>
<!-- SIGAM -->
<g id="node4" class="node"><title>SIGAM</title>
<polygon fill="none" stroke="black" points="381.741,-785.402 320.539,-785.402 320.539,-744.198 381.741,-744.198 381.741,-785.402"/>
<text text-anchor="middle" x="351.14" y="-769" font-family="Times,serif" font-size="14.00">SIGAM</text>
<text text-anchor="middle" x="351.14" y="-752.2" font-family="Times,serif" font-size="14.00">164</text>
</g>
<!-- SI_CCCOR&#45;&#45;SIGAM -->
<g id="edge2" class="edge"><title>SI_CCCOR&#45;&#45;SIGAM</title>
<path fill="none" stroke="black" d="M227.028,-742.216C255.971,-747.525 294.293,-754.555 320.445,-759.353"/>
</g>
<!-- SISEVE -->
<g id="node5" class="node"><title>SISEVE</title>
<polygon fill="none" stroke="black" points="383.079,-665.402 319.201,-665.402 319.201,-624.198 383.079,-624.198 383.079,-665.402"/>
<text text-anchor="middle" x="351.14" y="-649" font-family="Times,serif" font-size="14.00">SISEVE</text>
<text text-anchor="middle" x="351.14" y="-632.2" font-family="Times,serif" font-size="14.00">818</text>
</g>
<!-- SI_CCCOR&#45;&#45;SISEVE -->
<g id="edge3" class="edge"><title>SI_CCCOR&#45;&#45;SISEVE</title>
<path fill="none" stroke="black" d="M227.369,-723.535C241.646,-718.763 257.476,-712.501 270.983,-704.8 289.077,-694.484 290.417,-687.423 306.983,-674.8 311.048,-671.703 315.399,-668.525 319.718,-665.451"/>
</g>
<!-- VERDISINT -->
<g id="node7" class="node"><title>VERDISINT</title>
<polygon fill="none" stroke="black" points="521.096,-725.402 431.365,-725.402 431.365,-684.198 521.096,-684.198 521.096,-725.402"/>
<text text-anchor="middle" x="476.23" y="-709" font-family="Times,serif" font-size="14.00">VERDISINT</text>
<text text-anchor="middle" x="476.23" y="-692.2" font-family="Times,serif" font-size="14.00">298</text>
</g>
<!-- SITNU&#45;&#45;VERDISINT -->
<g id="edge4" class="edge"><title>SITNU&#45;&#45;VERDISINT</title>
<path fill="none" stroke="black" d="M380.022,-808.021C385.433,-804.071 390.81,-799.599 395.297,-794.8 416.538,-772.086 409.962,-757.426 431.297,-734.8 434.339,-731.575 437.784,-728.504 441.375,-725.644"/>
</g>
<!-- SIGAM&#45;&#45;VERDISINT -->
<g id="edge18" class="edge"><title>SIGAM&#45;&#45;VERDISINT</title>
<path fill="none" stroke="black" d="M381.937,-750.276C397.163,-742.854 415.959,-733.692 432.681,-725.54"/>
</g>
<!-- SISKAPI -->
<g id="node6" class="node"><title>SISKAPI</title>
<polygon fill="none" stroke="black" points="510.612,-665.402 441.848,-665.402 441.848,-624.198 510.612,-624.198 510.612,-665.402"/>
<text text-anchor="middle" x="476.23" y="-649" font-family="Times,serif" font-size="14.00">SISKAPI</text>
<text text-anchor="middle" x="476.23" y="-632.2" font-family="Times,serif" font-size="14.00">118</text>
</g>
<!-- SISEVE&#45;&#45;SISKAPI -->
<g id="edge12" class="edge"><title>SISEVE&#45;&#45;SISKAPI</title>
<path fill="none" stroke="black" d="M382.884,-644.8C400.685,-644.8 423.12,-644.8 441.418,-644.8"/>
</g>
<!-- SISEVE&#45;&#45;VERDISINT -->
<g id="edge11" class="edge"><title>SISEVE&#45;&#45;VERDISINT</title>
<path fill="none" stroke="black" d="M382.884,-659.786C397.98,-667.144 416.407,-676.127 432.818,-684.126"/>
</g>
<!-- VERDERFE -->
<g id="node14" class="node"><title>VERDERFE</title>
<polygon fill="none" stroke="black" points="520.558,-785.402 431.903,-785.402 431.903,-744.198 520.558,-744.198 520.558,-785.402"/>
<text text-anchor="middle" x="476.23" y="-769" font-family="Times,serif" font-size="14.00">VERDERFE</text>
<text text-anchor="middle" x="476.23" y="-752.2" font-family="Times,serif" font-size="14.00">168</text>
</g>
<!-- SISEVE&#45;&#45;VERDERFE -->
<g id="edge10" class="edge"><title>SISEVE&#45;&#45;VERDERFE</title>
<path fill="none" stroke="black" d="M383.168,-663.941C387.49,-667.28 391.683,-670.934 395.297,-674.8 416.538,-697.514 409.962,-712.174 431.297,-734.8 434.339,-738.025 437.784,-741.096 441.375,-743.956"/>
</g>
<!-- VERINTS -->
<g id="node8" class="node"><title>VERINTS</title>
<polygon fill="none" stroke="black" points="632.31,-785.402 557.114,-785.402 557.114,-744.198 632.31,-744.198 632.31,-785.402"/>
<text text-anchor="middle" x="594.712" y="-769" font-family="Times,serif" font-size="14.00">VERINTS</text>
<text text-anchor="middle" x="594.712" y="-752.2" font-family="Times,serif" font-size="14.00">85</text>
</g>
<!-- VERDISINT&#45;&#45;VERINTS -->
<g id="edge5" class="edge"><title>VERDISINT&#45;&#45;VERINTS</title>
<path fill="none" stroke="black" d="M517.317,-725.449C530.215,-732.093 544.433,-739.417 557.071,-745.926"/>
</g>
<!-- VERINT -->
<g id="node9" class="node"><title>VERINT</title>
<polygon fill="none" stroke="black" points="628.528,-725.402 560.896,-725.402 560.896,-684.198 628.528,-684.198 628.528,-725.402"/>
<text text-anchor="middle" x="594.712" y="-709" font-family="Times,serif" font-size="14.00">VERINT</text>
<text text-anchor="middle" x="594.712" y="-692.2" font-family="Times,serif" font-size="14.00">227</text>
</g>
<!-- VERDISINT&#45;&#45;VERINT -->
<g id="edge6" class="edge"><title>VERDISINT&#45;&#45;VERINT</title>
<path fill="none" stroke="black" d="M521.267,-704.8C534.41,-704.8 548.58,-704.8 560.873,-704.8"/>
</g>
<!-- VERDER -->
<g id="node10" class="node"><title>VERDER</title>
<polygon fill="none" stroke="black" points="630.704,-665.402 558.72,-665.402 558.72,-624.198 630.704,-624.198 630.704,-665.402"/>
<text text-anchor="middle" x="594.712" y="-649" font-family="Times,serif" font-size="14.00">VERDER</text>
<text text-anchor="middle" x="594.712" y="-632.2" font-family="Times,serif" font-size="14.00">151</text>
</g>
<!-- VERDISINT&#45;&#45;VERDER -->
<g id="edge7" class="edge"><title>VERDISINT&#45;&#45;VERDER</title>
<path fill="none" stroke="black" d="M517.317,-684.151C530.741,-677.236 545.596,-669.584 558.61,-662.881"/>
</g>
<!-- SPCSIDG_PART1TOT -->
<g id="node11" class="node"><title>SPCSIDG_PART1TOT</title>
<polygon fill="cyan" stroke="black" points="260.651,-379.402 110.553,-379.402 110.553,-338.198 260.651,-338.198 260.651,-379.402"/>
<text text-anchor="middle" x="185.602" y="-363" font-family="Times,serif" font-size="14.00">SPCSIDG_PART1TOT</text>
<text text-anchor="middle" x="185.602" y="-346.2" font-family="Times,serif" font-size="14.00">116</text>
</g>
<!-- SPCSIDG_PART1TOT&#45;&#45;MXTURE -->
<g id="edge8" class="edge"><title>SPCSIDG_PART1TOT&#45;&#45;MXTURE</title>
<path fill="none" stroke="black" d="M245.216,-338.137C253.866,-335.037 262.664,-331.855 270.983,-328.8 284.917,-323.683 300.177,-317.934 313.548,-312.849"/>
</g>
<!-- SPCSIDG_PART2TOT -->
<g id="node12" class="node"><title>SPCSIDG_PART2TOT</title>
<polygon fill="cyan" stroke="black" points="260.651,-695.402 110.553,-695.402 110.553,-654.198 260.651,-654.198 260.651,-695.402"/>
<text text-anchor="middle" x="185.602" y="-679" font-family="Times,serif" font-size="14.00">SPCSIDG_PART2TOT</text>
<text text-anchor="middle" x="185.602" y="-662.2" font-family="Times,serif" font-size="14.00">84</text>
</g>
<!-- MXPTMA -->
<g id="node13" class="node"><title>MXPTMA</title>
<polygon fill="cyan" stroke="black" points="390.079,-605.402 312.201,-605.402 312.201,-564.198 390.079,-564.198 390.079,-605.402"/>
<text text-anchor="middle" x="351.14" y="-589" font-family="Times,serif" font-size="14.00">MXPTMA</text>
<text text-anchor="middle" x="351.14" y="-572.2" font-family="Times,serif" font-size="14.00">167</text>
</g>
<!-- SPCSIDG_PART2TOT&#45;&#45;MXPTMA -->
<g id="edge9" class="edge"><title>SPCSIDG_PART2TOT&#45;&#45;MXPTMA</title>
<path fill="none" stroke="black" d="M252.135,-654.125C258.647,-651.298 265.04,-648.188 270.983,-644.8 289.077,-634.484 290.417,-627.423 306.983,-614.8 311.048,-611.703 315.399,-608.525 319.718,-605.451"/>
</g>
<!-- SI_MXPTCO -->
<g id="node15" class="node"><title>SI_MXPTCO</title>
<polygon fill="cyan" stroke="black" points="232.375,-499.402 138.829,-499.402 138.829,-458.198 232.375,-458.198 232.375,-499.402"/>
<text text-anchor="middle" x="185.602" y="-483" font-family="Times,serif" font-size="14.00">SI_MXPTCO</text>
<text text-anchor="middle" x="185.602" y="-466.2" font-family="Times,serif" font-size="14.00">224</text>
</g>
<!-- SIMPLICO -->
<g id="node16" class="node"><title>SIMPLICO</title>
<polygon fill="cyan" stroke="black" points="226.43,-139.402 144.775,-139.402 144.775,-98.1981 226.43,-98.1981 226.43,-139.402"/>
<text text-anchor="middle" x="185.602" y="-123" font-family="Times,serif" font-size="14.00">SIMPLICO</text>
<text text-anchor="middle" x="185.602" y="-106.2" font-family="Times,serif" font-size="14.00">253</text>
</g>
<!-- SPCSIDG_PART1 -->
<g id="node17" class="node"><title>SPCSIDG_PART1</title>
<polygon fill="cyan" stroke="black" points="247.439,-259.402 123.765,-259.402 123.765,-218.198 247.439,-218.198 247.439,-259.402"/>
<text text-anchor="middle" x="185.602" y="-243" font-family="Times,serif" font-size="14.00">SPCSIDG_PART1</text>
<text text-anchor="middle" x="185.602" y="-226.2" font-family="Times,serif" font-size="14.00">104</text>
</g>
<!-- SPCSIDG_PART1&#45;&#45;MXTURE -->
<g id="edge13" class="edge"><title>SPCSIDG_PART1&#45;&#45;MXTURE</title>
<path fill="none" stroke="black" d="M245.216,-259.463C253.866,-262.563 262.664,-265.745 270.983,-268.8 284.917,-273.917 300.177,-279.666 313.548,-284.751"/>
</g>
<!-- SIDD -->
<g id="node18" class="node"><title>SIDD</title>
<polygon fill="none" stroke="black" points="212.602,-815.402 158.602,-815.402 158.602,-774.198 212.602,-774.198 212.602,-815.402"/>
<text text-anchor="middle" x="185.602" y="-799" font-family="Times,serif" font-size="14.00">SIDD</text>
<text text-anchor="middle" x="185.602" y="-782.2" font-family="Times,serif" font-size="14.00">174</text>
</g>
<!-- SIDD&#45;&#45;SIGAM -->
<g id="edge14" class="edge"><title>SIDD&#45;&#45;SIGAM</title>
<path fill="none" stroke="black" d="M212.878,-789.98C242.222,-784.597 289.62,-775.902 320.328,-770.269"/>
</g>
<!-- SIDD&#45;&#45;SISEVE -->
<g id="edge16" class="edge"><title>SIDD&#45;&#45;SISEVE</title>
<path fill="none" stroke="black" d="M212.822,-791.277C231.19,-787.554 255.183,-779.997 270.983,-764.8 302.033,-734.935 280.165,-708.517 306.983,-674.8 310.505,-670.372 314.852,-666.33 319.419,-662.745"/>
</g>
<!-- SIGAM_NH -->
<g id="node19" class="node"><title>SIGAM_NH</title>
<polygon fill="none" stroke="black" points="395.455,-725.402 306.826,-725.402 306.826,-684.198 395.455,-684.198 395.455,-725.402"/>
<text text-anchor="middle" x="351.14" y="-709" font-family="Times,serif" font-size="14.00">SIGAM_NH</text>
<text text-anchor="middle" x="351.14" y="-692.2" font-family="Times,serif" font-size="14.00">164</text>
</g>
<!-- SIDD&#45;&#45;SIGAM_NH -->
<g id="edge15" class="edge"><title>SIDD&#45;&#45;SIGAM_NH</title>
<path fill="none" stroke="black" d="M212.734,-788.108C229.948,-783.085 252.614,-775.273 270.983,-764.8 289.077,-754.484 290.417,-747.423 306.983,-734.8 311.048,-731.703 315.399,-728.525 319.718,-725.451"/>
</g>
<!-- SIGAM_NH&#45;&#45;VERDISINT -->
<g id="edge36" class="edge"><title>SIGAM_NH&#45;&#45;VERDISINT</title>
<path fill="none" stroke="black" d="M395.537,-704.8C407.027,-704.8 419.443,-704.8 430.978,-704.8"/>
</g>
<!-- SIPTP -->
<g id="node20" class="node"><title>SIPTP</title>
<polygon fill="none" stroke="black" points="212.602,-41.4019 158.602,-41.4019 158.602,-0.198095 212.602,-0.198095 212.602,-41.4019"/>
<text text-anchor="middle" x="185.602" y="-25" font-family="Times,serif" font-size="14.00">SIPTP</text>
<text text-anchor="middle" x="185.602" y="-8.2" font-family="Times,serif" font-size="14.00">180</text>
</g>
<!-- SIPTP&#45;&#45;SITNU -->
<g id="edge17" class="edge"><title>SIPTP&#45;&#45;SITNU</title>
<path fill="none" stroke="black" d="M212.633,-33.8862C232.458,-45.399 258.415,-64.1634 270.983,-88.8 342.369,-228.737 230.686,-657.48 306.983,-794.8 310.617,-801.341 316.351,-806.769 322.467,-811.127"/>
</g>
<!-- SPCSIDG_PART0NHTOT -->
<g id="node21" class="node"><title>SPCSIDG_PART0NHTOT</title>
<polygon fill="cyan" stroke="black" points="270.864,-319.402 100.341,-319.402 100.341,-278.198 270.864,-278.198 270.864,-319.402"/>
<text text-anchor="middle" x="185.602" y="-303" font-family="Times,serif" font-size="14.00">SPCSIDG_PART0NHTOT</text>
<text text-anchor="middle" x="185.602" y="-286.2" font-family="Times,serif" font-size="14.00">50</text>
</g>
<!-- SPNHSI -->
<g id="node22" class="node"><title>SPNHSI</title>
<polygon fill="none" stroke="black" points="64.3328,-439.402 -0.111184,-439.402 -0.111184,-398.198 64.3328,-398.198 64.3328,-439.402"/>
<text text-anchor="middle" x="32.1108" y="-423" font-family="Times,serif" font-size="14.00">SPNHSI</text>
<text text-anchor="middle" x="32.1108" y="-406.2" font-family="Times,serif" font-size="14.00">1021</text>
</g>
<!-- SPNHSI&#45;&#45;SI_CCCOR -->
<g id="edge20" class="edge"><title>SPNHSI&#45;&#45;SI_CCCOR</title>
<path fill="none" stroke="black" d="M35.4233,-439.739C42.3364,-498.798 64.601,-664.984 100.222,-704.8 111.417,-717.314 128.185,-724.609 143.83,-728.861"/>
</g>
<!-- SPNHSI&#45;&#45;SITNU -->
<g id="edge24" class="edge"><title>SPNHSI&#45;&#45;SITNU</title>
<path fill="none" stroke="black" d="M44.2888,-439.437C55.9896,-459.417 76.0157,-489.449 100.222,-508.8 165.107,-560.672 219.991,-519.221 270.983,-584.8 329.111,-659.555 256.157,-714.901 306.983,-794.8 310.803,-800.805 316.302,-805.936 322.102,-810.168"/>
</g>
<!-- SPNHSI&#45;&#45;SIGAM -->
<g id="edge32" class="edge"><title>SPNHSI&#45;&#45;SIGAM</title>
<path fill="none" stroke="black" d="M34.0496,-397.799C37.4974,-331.437 51.8928,-128.29 100.222,-88.8 158.991,-40.779 215.845,-36.6492 270.983,-88.8 323.212,-138.199 271.92,-672.042 306.983,-734.8 310.188,-740.535 315.003,-745.418 320.271,-749.473"/>
</g>
<!-- SPNHSI&#45;&#45;SISEVE -->
<g id="edge23" class="edge"><title>SPNHSI&#45;&#45;SISEVE</title>
<path fill="none" stroke="black" d="M44.2888,-439.437C55.9896,-459.417 76.0157,-489.449 100.222,-508.8 165.107,-560.672 200.457,-540.903 270.983,-584.8 288.665,-595.806 290.417,-602.177 306.983,-614.8 311.048,-617.897 315.399,-621.075 319.718,-624.149"/>
</g>
<!-- SPNHSI&#45;&#45;SPCSIDG_PART1TOT -->
<g id="edge27" class="edge"><title>SPNHSI&#45;&#45;SPCSIDG_PART1TOT</title>
<path fill="none" stroke="black" d="M64.3029,-404.243C75.5425,-399.161 88.3744,-393.545 100.222,-388.8 108.015,-385.678 116.276,-382.539 124.459,-379.527"/>
</g>
<!-- SPNHSI&#45;&#45;SPCSIDG_PART2TOT -->
<g id="edge21" class="edge"><title>SPNHSI&#45;&#45;SPCSIDG_PART2TOT</title>
<path fill="none" stroke="black" d="M33.3082,-439.623C34.8549,-483.482 44.5949,-586.148 100.222,-644.8 103.538,-648.297 107.289,-651.387 111.32,-654.118"/>
</g>
<!-- SPNHSI&#45;&#45;SI_MXPTCO -->
<g id="edge25" class="edge"><title>SPNHSI&#45;&#45;SI_MXPTCO</title>
<path fill="none" stroke="black" d="M64.3029,-433.357C75.5425,-438.439 88.3744,-444.055 100.222,-448.8 112.634,-453.772 126.229,-458.789 138.812,-463.26"/>
</g>
<!-- SPNHSI&#45;&#45;SIMPLICO -->
<g id="edge31" class="edge"><title>SPNHSI&#45;&#45;SIMPLICO</title>
<path fill="none" stroke="black" d="M35.7458,-397.808C43.2661,-340.999 66.4832,-186.017 100.222,-148.8 111.708,-136.129 128.903,-128.808 144.779,-124.579"/>
</g>
<!-- SPNHSI&#45;&#45;SPCSIDG_PART1 -->
<g id="edge29" class="edge"><title>SPNHSI&#45;&#45;SPCSIDG_PART1</title>
<path fill="none" stroke="black" d="M36.9576,-398.07C43.9604,-365.991 61.769,-304.325 100.222,-268.8 106.959,-262.575 115.073,-257.626 123.572,-253.695"/>
</g>
<!-- SPNHSI&#45;&#45;SIDD -->
<g id="edge19" class="edge"><title>SPNHSI&#45;&#45;SIDD</title>
<path fill="none" stroke="black" d="M34.4895,-439.675C39.3154,-506.732 57.5251,-715.165 100.222,-764.8 114.721,-781.655 139.351,-789.041 158.269,-792.277"/>
</g>
<!-- SPNHSI&#45;&#45;SIPTP -->
<g id="edge33" class="edge"><title>SPNHSI&#45;&#45;SIPTP</title>
<path fill="none" stroke="black" d="M34.3892,-397.971C39.006,-328.994 56.8893,-109.362 100.222,-55.8 114.586,-38.0449 139.489,-29.1901 158.53,-24.8405"/>
</g>
<!-- SPNHSI&#45;&#45;SPCSIDG_PART0NHTOT -->
<g id="edge28" class="edge"><title>SPNHSI&#45;&#45;SPCSIDG_PART0NHTOT</title>
<path fill="none" stroke="black" d="M43.7598,-398.136C55.1882,-377.846 75.1306,-347.319 100.222,-328.8 104.85,-325.384 109.903,-322.328 115.162,-319.601"/>
</g>
<!-- SPCSIDG_PART2 -->
<g id="node23" class="node"><title>SPCSIDG_PART2</title>
<polygon fill="cyan" stroke="black" points="247.439,-635.402 123.765,-635.402 123.765,-594.198 247.439,-594.198 247.439,-635.402"/>
<text text-anchor="middle" x="185.602" y="-619" font-family="Times,serif" font-size="14.00">SPCSIDG_PART2</text>
<text text-anchor="middle" x="185.602" y="-602.2" font-family="Times,serif" font-size="14.00">82</text>
</g>
<!-- SPNHSI&#45;&#45;SPCSIDG_PART2 -->
<g id="edge22" class="edge"><title>SPNHSI&#45;&#45;SPCSIDG_PART2</title>
<path fill="none" stroke="black" d="M36.4785,-439.404C42.9942,-473.047 60.3587,-540.007 100.222,-579.8 106.956,-586.523 115.169,-592.017 123.797,-596.489"/>
</g>
<!-- MXMAOPTR -->
<g id="node24" class="node"><title>MXMAOPTR</title>
<polygon fill="cyan" stroke="black" points="233.983,-439.402 137.222,-439.402 137.222,-398.198 233.983,-398.198 233.983,-439.402"/>
<text text-anchor="middle" x="185.602" y="-423" font-family="Times,serif" font-size="14.00">MXMAOPTR</text>
<text text-anchor="middle" x="185.602" y="-406.2" font-family="Times,serif" font-size="14.00">90</text>
</g>
<!-- SPNHSI&#45;&#45;MXMAOPTR -->
<g id="edge26" class="edge"><title>SPNHSI&#45;&#45;MXMAOPTR</title>
<path fill="none" stroke="black" d="M64.5,-418.8C85.473,-418.8 113.451,-418.8 137.127,-418.8"/>
</g>
<!-- SPCSIDG_PART0NH -->
<g id="node25" class="node"><title>SPCSIDG_PART0NH</title>
<polygon fill="cyan" stroke="black" points="257.153,-199.402 114.052,-199.402 114.052,-158.198 257.153,-158.198 257.153,-199.402"/>
<text text-anchor="middle" x="185.602" y="-183" font-family="Times,serif" font-size="14.00">SPCSIDG_PART0NH</text>
<text text-anchor="middle" x="185.602" y="-166.2" font-family="Times,serif" font-size="14.00">48</text>
</g>
<!-- SPNHSI&#45;&#45;SPCSIDG_PART0NH -->
<g id="edge30" class="edge"><title>SPNHSI&#45;&#45;SPCSIDG_PART0NH</title>
<path fill="none" stroke="black" d="M33.8627,-398.165C36.4811,-356.68 48.1715,-262.558 100.222,-208.8 104.223,-204.667 108.831,-201.102 113.785,-198.027"/>
</g>
<!-- SPCSIDG_PART2&#45;&#45;MXPTMA -->
<g id="edge35" class="edge"><title>SPCSIDG_PART2&#45;&#45;MXPTMA</title>
<path fill="none" stroke="black" d="M247.498,-603.629C269.111,-599.664 292.81,-595.317 311.985,-591.799"/>
</g>
<!-- MXMAOP -->
<g id="node26" class="node"><title>MXMAOP</title>
<polygon fill="cyan" stroke="black" points="390.632,-439.402 311.649,-439.402 311.649,-398.198 390.632,-398.198 390.632,-439.402"/>
<text text-anchor="middle" x="351.14" y="-423" font-family="Times,serif" font-size="14.00">MXMAOP</text>
<text text-anchor="middle" x="351.14" y="-406.2" font-family="Times,serif" font-size="14.00">132</text>
</g>
<!-- MXMAOPTR&#45;&#45;MXMAOP -->
<g id="edge34" class="edge"><title>MXMAOPTR&#45;&#45;MXMAOP</title>
<path fill="none" stroke="black" d="M234.344,-418.8C258.856,-418.8 288.334,-418.8 311.413,-418.8"/>
</g>
</g>
</svg>
