<?xml version="1.0" encoding="UTF-8" standalone="no"?>
<!DOCTYPE svg PUBLIC "-//W3C//DTD SVG 1.1//EN"
 "http://www.w3.org/Graphics/SVG/1.1/DTD/svg11.dtd">
<!-- Generated by graphviz version 2.38.0 (20140413.2041)
 -->
<!-- Title: Perl Pages: 1 -->
<svg width="619pt" height="764pt"
 viewBox="0.00 0.00 618.51 763.60" xmlns="http://www.w3.org/2000/svg" xmlns:xlink="http://www.w3.org/1999/xlink">
<g id="graph0" class="graph" transform="scale(1 1) rotate(0) translate(4 759.6)">
<title>Perl</title>
<polygon fill="white" stroke="none" points="-4,4 -4,-759.6 614.508,-759.6 614.508,4 -4,4"/>
<!-- MXTURE -->
<g id="node1" class="node"><title>MXTURE</title>
<polygon fill="cyan" stroke="black" points="364.257,-319.402 289.058,-319.402 289.058,-278.198 364.257,-278.198 364.257,-319.402"/>
<text text-anchor="middle" x="326.658" y="-303" font-family="Times,serif" font-size="14.00">MXTURE</text>
<text text-anchor="middle" x="326.658" y="-286.2" font-family="Times,serif" font-size="14.00">443</text>
</g>
<!-- SI_CCCOR -->
<g id="node2" class="node"><title>SI_CCCOR</title>
<polygon fill="none" stroke="black" points="213.393,-695.402 130.6,-695.402 130.6,-654.198 213.393,-654.198 213.393,-695.402"/>
<text text-anchor="middle" x="171.996" y="-679" font-family="Times,serif" font-size="14.00">SI_CCCOR</text>
<text text-anchor="middle" x="171.996" y="-662.2" font-family="Times,serif" font-size="14.00">192</text>
</g>
<!-- SITNU -->
<g id="node3" class="node"><title>SITNU</title>
<polygon fill="none" stroke="black" points="355.367,-755.402 297.948,-755.402 297.948,-714.198 355.367,-714.198 355.367,-755.402"/>
<text text-anchor="middle" x="326.658" y="-739" font-family="Times,serif" font-size="14.00">SITNU</text>
<text text-anchor="middle" x="326.658" y="-722.2" font-family="Times,serif" font-size="14.00">169</text>
</g>
<!-- SI_CCCOR&#45;&#45;SITNU -->
<g id="edge1" class="edge"><title>SI_CCCOR&#45;&#45;SITNU</title>
<path fill="none" stroke="black" d="M213.506,-690.721C240.183,-701.206 274.409,-714.658 297.997,-723.928"/>
</g>
<!-- SIGAM -->
<g id="node4" class="node"><title>SIGAM</title>
<polygon fill="none" stroke="black" points="357.259,-695.402 296.057,-695.402 296.057,-654.198 357.259,-654.198 357.259,-695.402"/>
<text text-anchor="middle" x="326.658" y="-679" font-family="Times,serif" font-size="14.00">SIGAM</text>
<text text-anchor="middle" x="326.658" y="-662.2" font-family="Times,serif" font-size="14.00">164</text>
</g>
<!-- SI_CCCOR&#45;&#45;SIGAM -->
<g id="edge2" class="edge"><title>SI_CCCOR&#45;&#45;SIGAM</title>
<path fill="none" stroke="black" d="M213.506,-674.8C239.476,-674.8 272.601,-674.8 296.1,-674.8"/>
</g>
<!-- SISEVE -->
<g id="node5" class="node"><title>SISEVE</title>
<polygon fill="none" stroke="black" points="358.597,-575.402 294.719,-575.402 294.719,-534.198 358.597,-534.198 358.597,-575.402"/>
<text text-anchor="middle" x="326.658" y="-559" font-family="Times,serif" font-size="14.00">SISEVE</text>
<text text-anchor="middle" x="326.658" y="-542.2" font-family="Times,serif" font-size="14.00">818</text>
</g>
<!-- SI_CCCOR&#45;&#45;SISEVE -->
<g id="edge3" class="edge"><title>SI_CCCOR&#45;&#45;SISEVE</title>
<path fill="none" stroke="black" d="M213.718,-662.644C224.281,-658.187 235.11,-652.33 243.771,-644.8 267.24,-624.396 258.21,-607.21 279.771,-584.8 284.127,-580.273 289.286,-576.086 294.546,-572.365"/>
</g>
<!-- VERDISINT -->
<g id="node7" class="node"><title>VERDISINT</title>
<polygon fill="none" stroke="black" points="499.342,-635.402 409.611,-635.402 409.611,-594.198 499.342,-594.198 499.342,-635.402"/>
<text text-anchor="middle" x="454.477" y="-619" font-family="Times,serif" font-size="14.00">VERDISINT</text>
<text text-anchor="middle" x="454.477" y="-602.2" font-family="Times,serif" font-size="14.00">298</text>
</g>
<!-- SITNU&#45;&#45;VERDISINT -->
<g id="edge4" class="edge"><title>SITNU&#45;&#45;VERDISINT</title>
<path fill="none" stroke="black" d="M355.689,-718.17C361.798,-714.089 368.067,-709.525 373.544,-704.8 398.229,-683.505 422.511,-654.743 437.715,-635.522"/>
</g>
<!-- SIGAM&#45;&#45;VERDISINT -->
<g id="edge18" class="edge"><title>SIGAM&#45;&#45;VERDISINT</title>
<path fill="none" stroke="black" d="M357.475,-660.581C373.172,-653.096 392.71,-643.778 410.056,-635.506"/>
</g>
<!-- SISKAPI -->
<g id="node6" class="node"><title>SISKAPI</title>
<polygon fill="none" stroke="black" points="488.859,-575.402 420.095,-575.402 420.095,-534.198 488.859,-534.198 488.859,-575.402"/>
<text text-anchor="middle" x="454.477" y="-559" font-family="Times,serif" font-size="14.00">SISKAPI</text>
<text text-anchor="middle" x="454.477" y="-542.2" font-family="Times,serif" font-size="14.00">118</text>
</g>
<!-- SISEVE&#45;&#45;SISKAPI -->
<g id="edge11" class="edge"><title>SISEVE&#45;&#45;SISKAPI</title>
<path fill="none" stroke="black" d="M358.437,-554.8C377.061,-554.8 400.821,-554.8 419.925,-554.8"/>
</g>
<!-- SISEVE&#45;&#45;VERDISINT -->
<g id="edge10" class="edge"><title>SISEVE&#45;&#45;VERDISINT</title>
<path fill="none" stroke="black" d="M358.437,-569.478C374.005,-576.902 393.163,-586.038 410.189,-594.157"/>
</g>
<!-- VERDERFE -->
<g id="node13" class="node"><title>VERDERFE</title>
<polygon fill="none" stroke="black" points="498.804,-725.402 410.149,-725.402 410.149,-684.198 498.804,-684.198 498.804,-725.402"/>
<text text-anchor="middle" x="454.477" y="-709" font-family="Times,serif" font-size="14.00">VERDERFE</text>
<text text-anchor="middle" x="454.477" y="-692.2" font-family="Times,serif" font-size="14.00">167</text>
</g>
<!-- SISEVE&#45;&#45;VERDERFE -->
<g id="edge9" class="edge"><title>SISEVE&#45;&#45;VERDERFE</title>
<path fill="none" stroke="black" d="M358.77,-572.365C364.029,-576.086 369.189,-580.273 373.544,-584.8 395.105,-607.21 392.34,-618.894 409.544,-644.8 418.401,-658.136 428.985,-672.63 437.545,-684.031"/>
</g>
<!-- VERINTS -->
<g id="node8" class="node"><title>VERINTS</title>
<polygon fill="none" stroke="black" points="610.557,-680.402 535.36,-680.402 535.36,-639.198 610.557,-639.198 610.557,-680.402"/>
<text text-anchor="middle" x="572.959" y="-664" font-family="Times,serif" font-size="14.00">VERINTS</text>
<text text-anchor="middle" x="572.959" y="-647.2" font-family="Times,serif" font-size="14.00">85</text>
</g>
<!-- VERDISINT&#45;&#45;VERINTS -->
<g id="edge5" class="edge"><title>VERDISINT&#45;&#45;VERINTS</title>
<path fill="none" stroke="black" d="M499.514,-631.813C511.239,-636.342 523.782,-641.188 535.081,-645.553"/>
</g>
<!-- VERINT -->
<g id="node9" class="node"><title>VERINT</title>
<polygon fill="none" stroke="black" points="606.775,-620.402 539.142,-620.402 539.142,-579.198 606.775,-579.198 606.775,-620.402"/>
<text text-anchor="middle" x="572.959" y="-604" font-family="Times,serif" font-size="14.00">VERINT</text>
<text text-anchor="middle" x="572.959" y="-587.2" font-family="Times,serif" font-size="14.00">227</text>
</g>
<!-- VERDISINT&#45;&#45;VERINT -->
<g id="edge6" class="edge"><title>VERDISINT&#45;&#45;VERINT</title>
<path fill="none" stroke="black" d="M499.514,-609.129C512.656,-607.437 526.827,-605.612 539.12,-604.029"/>
</g>
<!-- VERDER -->
<g id="node10" class="node"><title>VERDER</title>
<polygon fill="none" stroke="black" points="608.95,-560.402 536.967,-560.402 536.967,-519.198 608.95,-519.198 608.95,-560.402"/>
<text text-anchor="middle" x="572.959" y="-544" font-family="Times,serif" font-size="14.00">VERDER</text>
<text text-anchor="middle" x="572.959" y="-527.2" font-family="Times,serif" font-size="14.00">151</text>
</g>
<!-- VERDISINT&#45;&#45;VERDER -->
<g id="edge7" class="edge"><title>VERDISINT&#45;&#45;VERDER</title>
<path fill="none" stroke="black" d="M487.614,-594.107C503.911,-583.615 523.645,-570.908 539.926,-560.425"/>
</g>
<!-- SPCIMPF_HSI3 -->
<g id="node11" class="node"><title>SPCIMPF_HSI3</title>
<polygon fill="cyan" stroke="black" points="227.119,-101.402 116.874,-101.402 116.874,-60.1981 227.119,-60.1981 227.119,-101.402"/>
<text text-anchor="middle" x="171.996" y="-85" font-family="Times,serif" font-size="14.00">SPCIMPF_HSI3</text>
<text text-anchor="middle" x="171.996" y="-68.2" font-family="Times,serif" font-size="14.00">205</text>
</g>
<!-- SI_MXPTCO -->
<g id="node12" class="node"><title>SI_MXPTCO</title>
<polygon fill="cyan" stroke="black" points="373.431,-439.402 279.885,-439.402 279.885,-398.198 373.431,-398.198 373.431,-439.402"/>
<text text-anchor="middle" x="326.658" y="-423" font-family="Times,serif" font-size="14.00">SI_MXPTCO</text>
<text text-anchor="middle" x="326.658" y="-406.2" font-family="Times,serif" font-size="14.00">224</text>
</g>
<!-- TRIDIA2 -->
<g id="node14" class="node"><title>TRIDIA2</title>
<polygon fill="none" stroke="black" points="608.384,-740.402 537.534,-740.402 537.534,-699.198 608.384,-699.198 608.384,-740.402"/>
<text text-anchor="middle" x="572.959" y="-724" font-family="Times,serif" font-size="14.00">TRIDIA2</text>
<text text-anchor="middle" x="572.959" y="-707.2" font-family="Times,serif" font-size="14.00">131</text>
</g>
<!-- VERDERFE&#45;&#45;TRIDIA2 -->
<g id="edge8" class="edge"><title>VERDERFE&#45;&#45;TRIDIA2</title>
<path fill="none" stroke="black" d="M498.85,-710.385C511.658,-712.035 525.493,-713.816 537.645,-715.381"/>
</g>
<!-- SIMPLICO -->
<g id="node15" class="node"><title>SIMPLICO</title>
<polygon fill="cyan" stroke="black" points="367.485,-199.402 285.83,-199.402 285.83,-158.198 367.485,-158.198 367.485,-199.402"/>
<text text-anchor="middle" x="326.658" y="-183" font-family="Times,serif" font-size="14.00">SIMPLICO</text>
<text text-anchor="middle" x="326.658" y="-166.2" font-family="Times,serif" font-size="14.00">253</text>
</g>
<!-- SPCSIDG_PART1 -->
<g id="node16" class="node"><title>SPCSIDG_PART1</title>
<polygon fill="cyan" stroke="black" points="233.834,-319.402 110.159,-319.402 110.159,-278.198 233.834,-278.198 233.834,-319.402"/>
<text text-anchor="middle" x="171.996" y="-303" font-family="Times,serif" font-size="14.00">SPCSIDG_PART1</text>
<text text-anchor="middle" x="171.996" y="-286.2" font-family="Times,serif" font-size="14.00">144</text>
</g>
<!-- SPCSIDG_PART1&#45;&#45;MXTURE -->
<g id="edge12" class="edge"><title>SPCSIDG_PART1&#45;&#45;MXTURE</title>
<path fill="none" stroke="black" d="M233.771,-298.8C252.396,-298.8 272.312,-298.8 288.824,-298.8"/>
</g>
<!-- SIDD -->
<g id="node17" class="node"><title>SIDD</title>
<polygon fill="none" stroke="black" points="198.996,-755.402 144.996,-755.402 144.996,-714.198 198.996,-714.198 198.996,-755.402"/>
<text text-anchor="middle" x="171.996" y="-739" font-family="Times,serif" font-size="14.00">SIDD</text>
<text text-anchor="middle" x="171.996" y="-722.2" font-family="Times,serif" font-size="14.00">174</text>
</g>
<!-- SIDD&#45;&#45;SIGAM -->
<g id="edge13" class="edge"><title>SIDD&#45;&#45;SIGAM</title>
<path fill="none" stroke="black" d="M199.24,-724.486C226.179,-713.898 268.02,-697.453 296.107,-686.414"/>
</g>
<!-- SIDD&#45;&#45;SISEVE -->
<g id="edge15" class="edge"><title>SIDD&#45;&#45;SISEVE</title>
<path fill="none" stroke="black" d="M199.14,-729.541C214.123,-725.255 232.193,-717.721 243.771,-704.8 280.931,-663.332 246.447,-629.408 279.771,-584.8 283.759,-579.462 288.996,-574.801 294.502,-570.845"/>
</g>
<!-- SIGAM_NH -->
<g id="node18" class="node"><title>SIGAM_NH</title>
<polygon fill="none" stroke="black" points="370.973,-635.402 282.343,-635.402 282.343,-594.198 370.973,-594.198 370.973,-635.402"/>
<text text-anchor="middle" x="326.658" y="-619" font-family="Times,serif" font-size="14.00">SIGAM_NH</text>
<text text-anchor="middle" x="326.658" y="-602.2" font-family="Times,serif" font-size="14.00">164</text>
</g>
<!-- SIDD&#45;&#45;SIGAM_NH -->
<g id="edge14" class="edge"><title>SIDD&#45;&#45;SIGAM_NH</title>
<path fill="none" stroke="black" d="M199.055,-728.095C213.462,-723.39 230.981,-715.92 243.771,-704.8 267.24,-684.396 258.21,-667.21 279.771,-644.8 282.939,-641.508 286.532,-638.395 290.279,-635.511"/>
</g>
<!-- SIGAM_NH&#45;&#45;VERDISINT -->
<g id="edge35" class="edge"><title>SIGAM_NH&#45;&#45;VERDISINT</title>
<path fill="none" stroke="black" d="M370.958,-614.8C383.326,-614.8 396.818,-614.8 409.242,-614.8"/>
</g>
<!-- SPCIMPFSOLVE -->
<g id="node19" class="node"><title>SPCIMPFSOLVE</title>
<polygon fill="cyan" stroke="black" points="231.17,-199.402 112.823,-199.402 112.823,-158.198 231.17,-158.198 231.17,-199.402"/>
<text text-anchor="middle" x="171.996" y="-183" font-family="Times,serif" font-size="14.00">SPCIMPFSOLVE</text>
<text text-anchor="middle" x="171.996" y="-166.2" font-family="Times,serif" font-size="14.00">179</text>
</g>
<!-- SPCIMPFSOLVE&#45;&#45;SIMPLICO -->
<g id="edge16" class="edge"><title>SPCIMPFSOLVE&#45;&#45;SIMPLICO</title>
<path fill="none" stroke="black" d="M231.583,-178.8C249.745,-178.8 269.326,-178.8 285.897,-178.8"/>
</g>
<!-- SIPTP -->
<g id="node20" class="node"><title>SIPTP</title>
<polygon fill="none" stroke="black" points="198.996,-41.4019 144.996,-41.4019 144.996,-0.198095 198.996,-0.198095 198.996,-41.4019"/>
<text text-anchor="middle" x="171.996" y="-25" font-family="Times,serif" font-size="14.00">SIPTP</text>
<text text-anchor="middle" x="171.996" y="-8.2" font-family="Times,serif" font-size="14.00">180</text>
</g>
<!-- SIPTP&#45;&#45;SITNU -->
<g id="edge17" class="edge"><title>SIPTP&#45;&#45;SITNU</title>
<path fill="none" stroke="black" d="M199.245,-24.8632C214.863,-28.7463 233.568,-36.2763 243.771,-50.8 327.444,-169.899 207.023,-578.731 279.771,-704.8 283.958,-712.055 290.688,-717.866 297.719,-722.37"/>
</g>
<!-- MXPTMA -->
<g id="node21" class="node"><title>MXPTMA</title>
<polygon fill="cyan" stroke="black" points="365.597,-515.402 287.719,-515.402 287.719,-474.198 365.597,-474.198 365.597,-515.402"/>
<text text-anchor="middle" x="326.658" y="-499" font-family="Times,serif" font-size="14.00">MXPTMA</text>
<text text-anchor="middle" x="326.658" y="-482.2" font-family="Times,serif" font-size="14.00">167</text>
</g>
<!-- SPNHSI -->
<g id="node22" class="node"><title>SPNHSI</title>
<polygon fill="none" stroke="black" points="64.3328,-409.402 -0.111184,-409.402 -0.111184,-368.198 64.3328,-368.198 64.3328,-409.402"/>
<text text-anchor="middle" x="32.1108" y="-393" font-family="Times,serif" font-size="14.00">SPNHSI</text>
<text text-anchor="middle" x="32.1108" y="-376.2" font-family="Times,serif" font-size="14.00">883</text>
</g>
<!-- SPNHSI&#45;&#45;SI_CCCOR -->
<g id="edge20" class="edge"><title>SPNHSI&#45;&#45;SI_CCCOR</title>
<path fill="none" stroke="black" d="M32.7067,-409.5C32.8894,-456.971 39.8046,-574.952 100.222,-644.8 108.167,-653.985 119.406,-660.431 130.594,-664.924"/>
</g>
<!-- SPNHSI&#45;&#45;SITNU -->
<g id="edge24" class="edge"><title>SPNHSI&#45;&#45;SITNU</title>
<path fill="none" stroke="black" d="M53.7622,-409.66C66.5022,-421.9 83.5478,-437.191 100.222,-448.8 159.466,-490.05 200.623,-466.924 243.771,-524.8 292.535,-590.207 234.071,-637.217 279.771,-704.8 284.357,-711.581 291.039,-717.191 297.893,-721.653"/>
</g>
<!-- SPNHSI&#45;&#45;SIGAM -->
<g id="edge30" class="edge"><title>SPNHSI&#45;&#45;SIGAM</title>
<path fill="none" stroke="black" d="M35.7282,-367.993C42.8983,-314.727 64.7206,-175.736 100.222,-148.8 151.048,-110.237 197.054,-105.35 243.771,-148.8 324.694,-224.062 223.703,-549.567 279.771,-644.8 283.635,-651.362 289.564,-656.752 295.892,-661.062"/>
</g>
<!-- SPNHSI&#45;&#45;SISEVE -->
<g id="edge23" class="edge"><title>SPNHSI&#45;&#45;SISEVE</title>
<path fill="none" stroke="black" d="M53.2741,-409.665C65.9739,-422.056 83.1471,-437.503 100.222,-448.8 164.965,-491.637 249.75,-526.516 294.64,-543.536"/>
</g>
<!-- SPNHSI&#45;&#45;SPCIMPF_HSI3 -->
<g id="edge31" class="edge"><title>SPNHSI&#45;&#45;SPCIMPF_HSI3</title>
<path fill="none" stroke="black" d="M32.5736,-368.113C32.3741,-318.835 38.3608,-192.88 100.222,-115.8 104.769,-110.134 110.467,-105.314 116.644,-101.232"/>
</g>
<!-- SPNHSI&#45;&#45;SPCSIDG_PART1 -->
<g id="edge27" class="edge"><title>SPNHSI&#45;&#45;SPCSIDG_PART1</title>
<path fill="none" stroke="black" d="M52.8316,-367.983C65.5019,-355.456 82.8002,-339.849 100.222,-328.8 105.518,-325.44 111.256,-322.303 117.094,-319.42"/>
</g>
<!-- SPNHSI&#45;&#45;SIDD -->
<g id="edge19" class="edge"><title>SPNHSI&#45;&#45;SIDD</title>
<path fill="none" stroke="black" d="M35.0249,-409.531C41.1962,-472.323 62.3993,-658.933 100.222,-704.8 111.344,-718.288 129.616,-725.828 144.808,-729.975"/>
</g>
<!-- SPNHSI&#45;&#45;SPCIMPFSOLVE -->
<g id="edge29" class="edge"><title>SPNHSI&#45;&#45;SPCIMPFSOLVE</title>
<path fill="none" stroke="black" d="M35.4983,-367.916C40.7477,-331.154 56.5269,-254.463 100.222,-208.8 103.912,-204.943 108.177,-201.559 112.748,-198.594"/>
</g>
<!-- SPNHSI&#45;&#45;SIPTP -->
<g id="edge32" class="edge"><title>SPNHSI&#45;&#45;SIPTP</title>
<path fill="none" stroke="black" d="M34.7132,-368.042C40.1621,-302.338 59.9184,-100.341 100.222,-50.8 111.255,-37.2383 129.529,-29.7005 144.744,-25.5727"/>
</g>
<!-- SPCIMPF_HSI1 -->
<g id="node23" class="node"><title>SPCIMPF_HSI1</title>
<polygon fill="cyan" stroke="black" points="227.119,-635.402 116.874,-635.402 116.874,-594.198 227.119,-594.198 227.119,-635.402"/>
<text text-anchor="middle" x="171.996" y="-619" font-family="Times,serif" font-size="14.00">SPCIMPF_HSI1</text>
<text text-anchor="middle" x="171.996" y="-602.2" font-family="Times,serif" font-size="14.00">195</text>
</g>
<!-- SPNHSI&#45;&#45;SPCIMPF_HSI1 -->
<g id="edge21" class="edge"><title>SPNHSI&#45;&#45;SPCIMPF_HSI1</title>
<path fill="none" stroke="black" d="M34.7396,-409.644C38.8649,-448.84 53.033,-534.135 100.222,-584.8 104.951,-589.878 110.68,-594.131 116.806,-597.685"/>
</g>
<!-- SPCSIDG_PART2 -->
<g id="node24" class="node"><title>SPCSIDG_PART2</title>
<polygon fill="cyan" stroke="black" points="233.834,-575.402 110.159,-575.402 110.159,-534.198 233.834,-534.198 233.834,-575.402"/>
<text text-anchor="middle" x="171.996" y="-559" font-family="Times,serif" font-size="14.00">SPCSIDG_PART2</text>
<text text-anchor="middle" x="171.996" y="-542.2" font-family="Times,serif" font-size="14.00">83</text>
</g>
<!-- SPNHSI&#45;&#45;SPCSIDG_PART2 -->
<g id="edge22" class="edge"><title>SPNHSI&#45;&#45;SPCSIDG_PART2</title>
<path fill="none" stroke="black" d="M39.1376,-409.454C48.2611,-437.578 68.0131,-488.045 100.222,-519.8 105.786,-525.286 112.38,-530.064 119.272,-534.177"/>
</g>
<!-- SPCIMPF_HSI2 -->
<g id="node25" class="node"><title>SPCIMPF_HSI2</title>
<polygon fill="cyan" stroke="black" points="227.119,-439.402 116.874,-439.402 116.874,-398.198 227.119,-398.198 227.119,-439.402"/>
<text text-anchor="middle" x="171.996" y="-423" font-family="Times,serif" font-size="14.00">SPCIMPF_HSI2</text>
<text text-anchor="middle" x="171.996" y="-406.2" font-family="Times,serif" font-size="14.00">168</text>
</g>
<!-- SPNHSI&#45;&#45;SPCIMPF_HSI2 -->
<g id="edge25" class="edge"><title>SPNHSI&#45;&#45;SPCIMPF_HSI2</title>
<path fill="none" stroke="black" d="M64.3992,-395.607C79.8933,-398.979 99.0477,-403.146 116.827,-407.014"/>
</g>
<!-- MXMAOPTR -->
<g id="node26" class="node"><title>MXMAOPTR</title>
<polygon fill="cyan" stroke="black" points="220.377,-379.402 123.616,-379.402 123.616,-338.198 220.377,-338.198 220.377,-379.402"/>
<text text-anchor="middle" x="171.996" y="-363" font-family="Times,serif" font-size="14.00">MXMAOPTR</text>
<text text-anchor="middle" x="171.996" y="-346.2" font-family="Times,serif" font-size="14.00">90</text>
</g>
<!-- SPNHSI&#45;&#45;MXMAOPTR -->
<g id="edge26" class="edge"><title>SPNHSI&#45;&#45;MXMAOPTR</title>
<path fill="none" stroke="black" d="M64.3992,-381.993C81.8798,-378.189 104.019,-373.372 123.586,-369.115"/>
</g>
<!-- SPCSIDG_PART0NH -->
<g id="node27" class="node"><title>SPCSIDG_PART0NH</title>
<polygon fill="cyan" stroke="black" points="243.547,-259.402 100.446,-259.402 100.446,-218.198 243.547,-218.198 243.547,-259.402"/>
<text text-anchor="middle" x="171.996" y="-243" font-family="Times,serif" font-size="14.00">SPCSIDG_PART0NH</text>
<text text-anchor="middle" x="171.996" y="-226.2" font-family="Times,serif" font-size="14.00">50</text>
</g>
<!-- SPNHSI&#45;&#45;SPCSIDG_PART0NH -->
<g id="edge28" class="edge"><title>SPNHSI&#45;&#45;SPCSIDG_PART0NH</title>
<path fill="none" stroke="black" d="M40.0037,-367.83C49.6357,-341.477 69.4743,-296.366 100.222,-268.8 104.097,-265.326 108.434,-262.214 113.002,-259.434"/>
</g>
<!-- SPCSIDG_PART2&#45;&#45;MXPTMA -->
<g id="edge34" class="edge"><title>SPCSIDG_PART2&#45;&#45;MXPTMA</title>
<path fill="none" stroke="black" d="M225.534,-534.151C245.889,-526.151 268.751,-517.166 287.486,-509.803"/>
</g>
<!-- SPCIMPF_HSI2&#45;&#45;SI_MXPTCO -->
<g id="edge36" class="edge"><title>SPCIMPF_HSI2&#45;&#45;SI_MXPTCO</title>
<path fill="none" stroke="black" d="M227.249,-418.8C244.389,-418.8 263.155,-418.8 279.66,-418.8"/>
</g>
<!-- MXMAOP -->
<g id="node28" class="node"><title>MXMAOP</title>
<polygon fill="cyan" stroke="black" points="366.149,-379.402 287.166,-379.402 287.166,-338.198 366.149,-338.198 366.149,-379.402"/>
<text text-anchor="middle" x="326.658" y="-363" font-family="Times,serif" font-size="14.00">MXMAOP</text>
<text text-anchor="middle" x="326.658" y="-346.2" font-family="Times,serif" font-size="14.00">132</text>
</g>
<!-- MXMAOPTR&#45;&#45;MXMAOP -->
<g id="edge33" class="edge"><title>MXMAOPTR&#45;&#45;MXMAOP</title>
<path fill="none" stroke="black" d="M220.463,-358.8C241.819,-358.8 266.712,-358.8 286.919,-358.8"/>
</g>
</g>
</svg>
